<svg version="1.1" xmlns="http://www.w3.org/2000/svg" viewBox="0 0 654.09375 1725.0625228881836" width="654.09375" height="1725.0625228881836">
  <!-- svg-source:excalidraw -->
  <!-- payload-type:application/vnd.excalidraw+json --><!-- payload-version:2 --><!-- payload-start -->eyJ2ZXJzaW9uIjoiMSIsImVuY29kaW5nIjoiYnN0cmluZyIsImNvbXByZXNzZWQiOnRydWUsImVuY29kZWQiOiJ4nO1cXNt2m8hcdTAwMTJ9z1do+TzMy4jp+2XefIvja2IrvuWcWVlYYJlcdTAwMTiBXHUwMDA0KLE1Kz9z3uY78mOnWrJccpIwwlx1MDAxYWHjzFGyXHUwMDEyXHSapmhq76rqqu4/3zRcdTAwMWEryW3PXfm9seLetG3fc1wi+9vKr+b4VzeKvTCAU2T0O1x1MDAwZVx1MDAwN1F71PIqSXrx77/9Zvd6VsdLLsLw2mqH3fFlru923SCJoeG/4Xej8efo38yNXCK3ndhBx3dHXHUwMDE3jE5N3St77CBcZkZ3xVhRzlx0xfShhVx1MDAxN2/A3Vx1MDAxMteB05e2XHUwMDFmu+lcdTAwMTlzaIXsy1ifdVx1MDAwZVd757t7XHUwMDFiTnxIevwwveml5/ut5NZcdTAwMWZcdFx1MDAxNYfw7Om5OInCa/fUc5KrXHShxsdcdTAwMWa7KlxuXHUwMDA3navAjc3D44ejYc9ue8mtOYbQw9HxXGL83kiP3JhcdTAwMTacWFxcXHUwMDEyjVx1MDAwNNNcZjMk0lubXHUwMDBlmshC5oM1kpQpQYnChE9Jt1x1MDAxZfphZKT7XHUwMDE3ds2fVL5cdTAwMGK7fd1cdTAwMDEhXHUwMDAz56FNXHUwMDEy2UHcsyN4ZWm7b/fPrZSlmdRUXCKMJVYyvdWV63WuXHUwMDEyaMORJZGilCCBpZBcXKXSuKM3g0FOJlj2xVx1MDAxOVx1MDAxOXrbzkhH/kjfR2R33W1zSTDw/eygXHUwMDA2zt2gTpy4MCc2p9Utq3JcdTAwMTNql7g36SNmtCQ85uvDTdZZXHUwMDBineGnXHUwMDBmXHUwMDFi3f5Zr1x1MDAxN688tPv+a36344ud9ibqOmf6/LK/c9Ld6J993rg8mbzL/f3tKFxuv2X6vfuWPv+g59hjZcaSKHj7mFOkU/3wveB6elxm/LB9ner/m4zAM7BzPLtcdTAwMWJcdTAwMDZOXHUwMDFl6OijoCNKYMpcdTAwMTDSpUHX6rdOdXxMvmhcdTAwMWTgnc0jzz99t19v0IGWXHUwMDBiJZlSnHON1CTk4PKRglx1MDAxM0WYRFx1MDAxMlFcXFx1MDAxOdxcdTAwMThcdTAwMTaWQZlCXHUwMDFjSy5cdTAwMTWeRdvjTe7RRjUniCsm64k2XCL2+v2DrYTSaJPSq7jpnrlbz4C2wn6Ds+5R833S/UjFp/bBmr/R3H/XqieKXHUwMDBijeejOGZYM6S5Lm87T29D8vZgL/n6/lR2XCLcPz7YXHUwMDBitupccmOsscU4zVx1MDAxYURzIVx1MDAxN9JiRGKMhMRay+rwSzC2XHUwMDE2NJKSwVEuMjxbK9SK3fXBzrBz7KxunWzuRVf6on2w/Vxm6Crs94v/4XPC48/yyN1/d9s+YfHGx+RnQi3WSkjNQGVKw/Y9vt3aud7Z0OxcdTAwMGK1d4OTc1x1MDAwN71ccmpcdTAwMGVbTC0tNeb5Lq9cdTAwMTDKwpQzgDClXHUwMDEyPMnK4EuFXHUwMDE43enB917E2cVEaHBcdTAwMTJ4TYG8ulx1MDAxMzJ1tLklxMnm+fb18Gw4PN97XHUwMDA2wFx1MDAxNfZ7dna9d9Snw4960Fx1MDAxN5uH71x1MDAwZS++XtN6XHUwMDAyeVx1MDAxMSdaKEZcdHhl5X1ovn/65Wq921xcV0fbbVx1MDAwN1xyyfm+3a03iu9cIlOMXHUwMDE5XHUwMDAzT1x1MDAwM0stsobQ9CFcdTAwMDHIMFx1MDAxMlIpzFx1MDAwMCNEVlx1MDAwNmSumYUgaM0zxDOn7oBLkFx1MDAwNFx1MDAwZcJcbuF6XHUwMDAyt9m99Xbcm2hcdTAwMTCt7+5KdibFhlx1MDAxZTxcdTAwMDPAii37xV78RV6QZi9+XHUwMDFi9k/31vebN4N6XHUwMDAydzFcdTAwMGIsOTNzMZkwa1x1MDAxZXSDNdKJdtCnSzf+dDg8Ory4+PC55n4zuM3c2LTZXHUwMDAwd3Q9w8QyiIGzmnNKplx1MDAwNVtm/IssTSTgk0NcdTAwMDRcdTAwMGJQXcBcdTAwMDBTOK5cdTAwMTX0UE9cdTAwMThvq+1V0rp22q1cdTAwMGaO5G6Tf7X32TPArbDfSL8//Nw60ZdcdTAwMWQvvkT+l2GQdPd+Jlx1MDAxOFx1MDAxM0RcdTAwMDRn4imOdG9nty9w/3T/8LBlX7TE0Vmn36o3jjm2XGKhXHUwMDFhIJqLY1x1MDAwZX62YIArocxcZrNW1eFcdTAwMThcdTAwMTjF3In9XHJcdTAwMWNjxDVcdTAwMTXQR01cdTAwMWTpjlx1MDAxZG++X5Oss3VcdTAwMWP3LnZcdTAwMTOJt7Z3n1x1MDAwMXCF/d7eXHUwMDFj817Qalx1MDAxZMf9cJ225THZvzxdKpDxs1x1MDAwMPnRJFx1MDAxMFx1MDAxMYxcdTAwMDBcdTAwMTBk+Xmsm/bJvoybn1a73bX3t1x1MDAwN8OjXHUwMDBma/is3jgmkoBBVlx1MDAxY8whRUpRNYljgZlcdTAwMDVRKlZKY/BNJKtcdTAwMGXHytJYXGIhNVVcdTAwMDRYhSyAY/D6jUVHNU3+XHUwMDFjkKGzivb31lrnJHD2jlf7rq1/QriN7/9cdTAwMTSbiSVcdTAwMTNcdTAwMDRTJMuHrcXT8/XEmpZcdTAwMTbP5Epu7+woqs46XCJcdTAwMGJstH74cIVzJppcdTAwMThcdTAwMDdcdTAwMTkwevjM5HlAOYSZpFpCuJpq9r26kLsj31x1MDAxZofbMj2+zFDbUbLmXHUwMDA1jlx1MDAxN3QmXHUwMDA1u6sq2C6R1zdcdTAwMGZcdTAwMWS2XHUwMDA3Rsqmslx1MDAwNDeRvVx1MDAwMFx1MDAwNpNYUOo2ZaZdx+5cdTAwMTmxZ57WXHKc+VJcdTAwMTQnOjNSIFx1MDAwYlx1MDAxMVxmoVx1MDAxM1x1MDAxMClcdTAwMTJUITOZOSNcdTAwMDT4ZpLKUZilXHUwMDE5kZrNXGLl23GyXHUwMDFldrteXHUwMDAyo/0h9IJkelRHw7dqkH7l2jOvXHUwMDFjXHUwMDFlKntumlx1MDAxMnqmx0kmTb81UtiMfjx8/+PX3NZNZPHsXHUwMDA1hFm8xDVcdTAwMDKxVOXBwmW7YGxcblx1MDAxMWl/b7L/L5FcdTAwMDGp0FoohspHXHLFqY5XxIDKpMwqpMCcqTl4wVhnPul7uZ+iw1x1MDAwMGLJ9T+R8kqTjZmHJVx1MDAwNFwiPFBbziWWnNGlUV5xUniS8sazwYpKRTBEgliDos1cbsItaprdp2ax+slo76lXMDpcdTAwMDWCyllOa4LBj3hcdTAwMDLJXHUwMDE1p4FqS3JoiuRcdTAwMDSQnKDVXHUwMDE1z6VcdTAwMTJkKU6izIfNpCEwppjAKyFLmL98dSRXml6aj/BLXHUwMDA2Sn+P6IrT6Fx1MDAxOUmkJVx1MDAwNOZcblx1MDAxMUQgVOKI5DmYI5JLXHUwMDEz2Hj2NbwmkptoXHJ8NaXR1Vx1MDAxM1x1MDAxNpLAWJlcZt48virOftWWr6adMrCQXHUwMDE2ZdXN9pSPS1HaaiYu5YpcdTAwMTLEtFrCfM+r46/SrNEsRVx1MDAxYlx1MDAwYnJXcfHAdFxcSjglXFxcdTAwMTHGlZapyz1cdTAwMTmWUiFcdTAwMThcdTAwMTJIM1x1MDAwNsK+au6qKi7NXCKiclx1MDAwMlx1MDAxNFJcdTAwMTKCXHUwMDE0KT9cdF6cOHw1XGZcYlx1MDAwMTm1NK1yam5+XFyaKVx1MDAwZr+nPECPJlL8XHUwMDEz49LSZDOOSzFcdTAwMTHEZHBAeaXMXHRcdTAwMDdcdTAwMTekvOKii4xcdTAwMTTCQooqxFxiXHUwMDE3XHUwMDE0omT6iLtcdTAwMDZcdTAwMWX4Q7nDz0d5T71iKiZVJO2gXCKGw1x1MDAwNk6aZaso51FcXHFKtbZcdTAwMTQ3XHUwMDFklGImgG4qLHJdLCpcdTAwMTVUMkmE+Cd6daXJpTnNLniJXl1xPUpGXG5cdTAwMGVCMC0wJsBiTEn2KMWllSBoVqjXRHEvXHUwMDFkkYJcdTAwMTNt3HmOy5dcdFx1MDAxNqeOX1x1MDAwZl1xoCvFK1xmSlx1MDAxN6IrXHUwMDAzPkmXsFx1MDAwMq5cdTAwMTKyekpS/6lkVZommqV4YkGyKi66aczkXHRcdTAwMDA5SFJcdTAwMDJBJidcdTAwMTBo4lx1MDAxOTnGaYL7ilx1MDAxN1x1MDAwMo7Z/1x0K7+2pUxcdTAwMTWVqcrD7ClVVPlrpGtNV2Y1oFx1MDAxNFRMLltcdTAwMWZdS1xmZWHBMKGccuCwyuhcdTAwMGJCXHUwMDFki49mT0hOZElmVyEwXCJcdTAwMTVcYlxcedHjXHUwMDFjjlJcdTAwMGI5VJdhkLS84bjiduLoW7vr+bdcdTAwMTPvcqS1JrNpUNloNj6acbx04bvjNtqDr5lRN01Xfa9jlHqlXHKP4EZcdTAwMTP6nnht239o0PVcdTAwMWMnW1bYhvvbXuBGZYpHVsLI63iB7X8sL1x1MDAxZYyQ++7+nWIr81Yv7Ng1Z0dcdTAwMDOyXFxcZlNTKE9cdC+ftstfeV1rXGZcdTAwMTNcdTAwMDNVopGWXHUwMDEwfihEMoxlOlx1MDAwMCtvKVx1MDAwNcfHeVx1MDAxNaaq80OwUFx1MDAxNpLi8U0wZnxcdTAwMTCz3ppcdTAwMTj6eWkok6yiVlxu5XXf61x1MDAwZtyo4UShlzTiQdTw7cZ/XHUwMDAyg5bG3e4x1WB6zp5cdTAwMTPTmM6VM1fKUtC+M9hLg7ZJx2OqmCo/+5G/Prve2CbYwppQNbmFzaj8SCHLXHUwMDFjlUJcIlx1MDAwMvjWU0ItXHUwMDEx1lx1MDAxY5v6ZW3WJZYy0NSU1UjJX1x1MDAxY9U0q6OVono7iH/8XHUwMDE1XHUwMDAxXFxcdTAwMDaB20h+/Ld9VVx1MDAxNYzn7DkxXHLjQsFexChjXHUwMDA0cVx1MDAxNMTIovxEQP6C7FojXHUwMDE3XHUwMDBicGpcdGWEXHUwMDEwcKExyqzvXHUwMDE51dVcdTAwMDB6tdJcdTAwMDLGomKjXGb+gIWYyLXIOb41MnM0nJDKl1wizMMuy2pptc71j798t52Ailx1MDAwMshcdTAwMWG/zDixv1SE5DnbUMw42eXFfCFcXDPNJM+W4c/Ddf567ZrjXHUwMDFh3GlcdTAwMDRerlYob1x1MDAxZiyGLCUkIVxcVLx+n1xiYbGpnXyKXFxtis2KX4UrX/M7XHUwMDBm2DyrptW62iFYO/Bbf1x0e1x1MDAwNjb3mFx1MDAxOdtD343B7Vx1MDAxZVvEuFx1MDAxMblxYlx1MDAwM5zjqsA+Z7eKXHUwMDE573ue6EWCv4hDXHUwMDBlXHUwMDFhb1x1MDAxY9UnoD9/mXe90c+oxYSUkk74wuOkJOGW1FhcdTAwMThSXHUwMDEwXGZXuFx1MDAwNVx1MDAwZpJcdTAwMTbmiqB87M9cdTAwMWF1oTiI9fLuuMhq6DOa9PvA1TF/41x1MDAwNHBmzlRcdTAwMDT0OXtbXHUwMDE0W/V5kr6MYddcXJuNXHUwMDE0n+Cw5y/8rje0MbPMxlx1MDAxZERwMVx1MDAxNWpjToRcdTAwMDWOjVkzolx1MDAxNFa0yu21uIWIJrq0w86RXHUwMDA0aL38XGaazCpppeB+zFx1MDAxNFx1MDAxYbU1XGJcbkKAkO9XOkE+Z+eLaZQvKPKLwF1CZK5pXHUwMDE2XHUwMDAz89Cevz681mhcdTAwMDe9NXUo4MjPTKxhQaRZ20w5xDNcdTAwMWGYr7q9fMBj0GTamShcdTAwMDA7MDHTuFx1MDAwZWhXWVx1MDAxZK1cdTAwMTTtb72qLPWcXS+mMTwhyJOQ+eYux71i93qtXHUwMDA0RnPlvipcdTAwMDBen+fcXHJJOoIrXz3321qxLr25Q7xBlzuqwvj+5vv/XHUwMDAwWLE7tiJ9<!-- payload-end -->
  <defs>
    <style class="style-fonts">
      @font-face {
        font-family: "Virgil";
        src: url("https://unpkg.com/@excalidraw/excalidraw@undefined/dist/excalidraw-assets/Virgil.woff2");
      }
      @font-face {
        font-family: "Cascadia";
        src: url("https://unpkg.com/@excalidraw/excalidraw@undefined/dist/excalidraw-assets/Cascadia.woff2");
      }
      @font-face {
        font-family: "Assistant";
        src: url("https://unpkg.com/@excalidraw/excalidraw@undefined/dist/excalidraw-assets/Assistant-Regular.woff2");
      }
    </style>
    
  </defs>
  <rect x="0" y="0" width="654.09375" height="1725.0625228881836" fill="transparent"/><g stroke-linecap="round" transform="translate(182.57291793823242 30) rotate(0 144.47396850585938 25.35416603088379)"><path d="M0 0 C96.74 -1.1, 190.65 -0.54, 288.95 0 M0 0 C65.78 -0.5, 132.64 -0.86, 288.95 0 M288.95 0 C287.41 9.92, 288.8 24.42, 288.95 50.71 M288.95 0 C288.13 14.52, 288.3 31.38, 288.95 50.71 M288.95 50.71 C178.7 50.48, 67.45 50.9, 0 50.71 M288.95 50.71 C196.1 48.35, 104.09 49.07, 0 50.71 M0 50.71 C-1.53 37.7, -1.16 22.72, 0 0 M0 50.71 C0.44 35.41, -0.21 20.64, 0 0" stroke="#1e1e1e" stroke-width="2" fill="none"/></g><g stroke-linecap="round" transform="translate(118.6875 130.70833015441895) rotate(0 208.35939025878906 208.35939025878906)"><path d="M209 0 C264.08 54.87, 320.63 110.17, 416.72 209 M209 0 C254.38 47.06, 299.71 92.06, 416.72 209 M416.72 209 C364.86 259.44, 315.91 310.7, 209 416.72 M416.72 209 C349.04 274.06, 283.14 342.32, 209 416.72 M209 416.72 C153.85 359.62, 97.35 304.05, 0 209 M209 416.72 C141.43 347.7, 73.68 279.48, 0 209 M0 209 C82.34 128.84, 161.81 48.99, 209 0 M0 209 C77.86 130.61, 155.65 53.36, 209 0" stroke="#1e1e1e" stroke-width="2" fill="none"/></g><g stroke-linecap="round" transform="translate(221.4531364440918 597.4271125793457) rotate(0 105.59375 25.35416603088379)"><path d="M0 0 C64.38 0.73, 127.55 -0.18, 211.19 0 M0 0 C64.95 0.08, 128.29 0.49, 211.19 0 M211.19 0 C210.99 18.64, 210.89 34.06, 211.19 50.71 M211.19 0 C209.95 15.92, 211.53 29.92, 211.19 50.71 M211.19 50.71 C158.38 53.47, 107.58 52.36, 0 50.71 M211.19 50.71 C166.26 49.88, 121.18 50.32, 0 50.71 M0 50.71 C-0.45 39.4, 0.38 30.96, 0 0 M0 50.71 C-0.26 37.89, -0.23 22.55, 0 0" stroke="#1e1e1e" stroke-width="2" fill="none"/></g><g stroke-linecap="round" transform="translate(143.97916793823242 698.1354446411133) rotate(0 183.0677032470703 25.35416603088379)"><path d="M0 0 C143.73 -0.86, 287.17 0.1, 366.14 0 M0 0 C92.5 -1.68, 185.9 -1, 366.14 0 M366.14 0 C367.63 12.02, 366.25 23.95, 366.14 50.71 M366.14 0 C366.57 11.29, 365.47 20.39, 366.14 50.71 M366.14 50.71 C253.68 49.89, 139.31 48.55, 0 50.71 M366.14 50.71 C278.17 50.34, 190.3 49.96, 0 50.71 M0 50.71 C-0.89 38.39, 1.24 25.27, 0 0 M0 50.71 C0.8 31.63, -0.85 13.01, 0 0" stroke="#1e1e1e" stroke-width="2" fill="none"/></g><g stroke-linecap="round" transform="translate(30 798.8437900543213) rotate(0 297.046875 297.046875)"><path d="M298 0 C366.42 69.24, 436.43 139.24, 594.09 298 M298 0 C372.11 75.44, 446.37 149.54, 594.09 298 M594.09 298 C525.59 368.32, 456.94 435.69, 298 594.09 M594.09 298 C527.01 365.46, 459.98 431.97, 298 594.09 M298 594.09 C190.89 488.45, 81.68 380.15, 0 298 M298 594.09 C226.71 524.32, 155.15 452.79, 0 298 M0 298 C99.18 200.77, 197.37 102.32, 298 0 M0 298 C94.65 201.41, 189.77 106.98, 298 0" stroke="#1e1e1e" stroke-width="2" fill="none"/></g><g stroke-linecap="round" transform="translate(121.58333969116211 1442.9375267028809) rotate(0 205.4635467529297 25.35416603088379)"><path d="M0 0 C121.85 1.66, 244.95 1.04, 410.93 0 M0 0 C144.56 1.92, 289.36 1.37, 410.93 0 M410.93 0 C411.85 15.48, 409.52 29.53, 410.93 50.71 M410.93 0 C411.07 10.79, 411.45 23.28, 410.93 50.71 M410.93 50.71 C307.2 50.19, 202.21 50.49, 0 50.71 M410.93 50.71 C291.24 49.5, 170.32 50.17, 0 50.71 M0 50.71 C1.58 36.74, 1.78 24.32, 0 0 M0 50.71 C-1.2 35.56, -0.53 19.53, 0 0" stroke="#1e1e1e" stroke-width="2" fill="none"/></g><g stroke-linecap="round" transform="translate(81.22396469116211 1543.6458587646484) rotate(0 245.8229217529297 25.35416603088379)"><path d="M0 0 C133.55 1.25, 266.59 2.06, 491.65 0 M0 0 C99.02 0.81, 197.5 1.1, 491.65 0 M491.65 0 C491.61 18.01, 490.13 38.22, 491.65 50.71 M491.65 0 C491.52 19.5, 492.69 38.32, 491.65 50.71 M491.65 50.71 C299.03 50.78, 107.37 51.21, 0 50.71 M491.65 50.71 C326.55 52.21, 162.34 52.29, 0 50.71 M0 50.71 C-0.62 38.96, 0.34 24.32, 0 0 M0 50.71 C0.71 30.92, 0.62 10.33, 0 0" stroke="#1e1e1e" stroke-width="2" fill="none"/></g><g stroke-linecap="round" transform="translate(302.5885524749756 1644.354190826416) rotate(0 24.45833396911621 25.35416603088379)"><path d="M0 0 C10.28 -1.05, 23.44 -2, 48.92 0 M0 0 C10.26 -0.84, 21.84 0.77, 48.92 0 M48.92 0 C47.16 13.76, 47.5 32.2, 48.92 50.71 M48.92 0 C48.88 20, 48.31 39.65, 48.92 50.71 M48.92 50.71 C32.09 49.06, 17.48 50.98, 0 50.71 M48.92 50.71 C35.22 50.57, 22.27 49.89, 0 50.71 M0 50.71 C1.24 35.59, -0.07 21.52, 0 0 M0 50.71 C0.31 35.34, -0.57 19.21, 0 0" stroke="#1e1e1e" stroke-width="2" fill="none"/></g><g stroke-linecap="round"><g transform="translate(327.5470114440918 81.20800190734863) rotate(0 -0.3020000000000209 22.100500000000004)"><path d="M-0.25 -0.28 C-0.21 3.71, -0.08 16.59, -0.21 23.96 C-0.34 31.32, -0.99 40.59, -1.03 43.91 M0.62 0.76 C0.65 4.8, -0.4 17.11, -0.49 24.38 C-0.59 31.64, 0.02 41.06, 0.07 44.36" stroke="#1e1e1e" stroke-width="2" fill="none"/></g><g transform="translate(327.5470114440918 81.20800190734863) rotate(0 -0.3020000000000209 22.100500000000004)"><path d="M-3.63 35.23 C-3.07 37.51, -2.49 38.87, 0.07 44.36 M-3.63 35.23 C-2.87 37.51, -1.56 39.76, 0.07 44.36" stroke="#1e1e1e" stroke-width="2" fill="none"/></g><g transform="translate(327.5470114440918 81.20800190734863) rotate(0 -0.3020000000000209 22.100500000000004)"><path d="M3.1 34.99 C2.19 37.3, 1.28 38.72, 0.07 44.36 M3.1 34.99 C2.2 37.31, 1.84 39.61, 0.07 44.36" stroke="#1e1e1e" stroke-width="2" fill="none"/></g></g><mask/><g stroke-linecap="round"><g transform="translate(327.5470114440918 548.4270019073487) rotate(0 -0.25 21.599999999999966)"><path d="M-0.28 0.29 C-0.46 4.26, -0.96 16.39, -1.04 23.57 C-1.13 30.75, -0.82 40.16, -0.79 43.37 M0.58 -0.04 C0.55 4.01, 0.22 16.98, -0.09 24.06 C-0.4 31.13, -1.15 39.21, -1.29 42.39" stroke="#1e1e1e" stroke-width="2" fill="none"/></g><g transform="translate(327.5470114440918 548.4270019073487) rotate(0 -0.25 21.599999999999966)"><path d="M-3.98 33.18 C-2.93 35.53, -2.73 38.56, -1.29 42.39 M-3.98 33.18 C-3.1 36.46, -2.22 39.35, -1.29 42.39" stroke="#1e1e1e" stroke-width="2" fill="none"/></g><g transform="translate(327.5470114440918 548.4270019073487) rotate(0 -0.25 21.599999999999966)"><path d="M2.57 33.6 C1.62 35.8, -0.18 38.71, -1.29 42.39 M2.57 33.6 C1.28 36.72, -0.01 39.47, -1.29 42.39" stroke="#1e1e1e" stroke-width="2" fill="none"/></g></g><mask/><g stroke-linecap="round"><g transform="translate(327.0470114440918 648.6350019073486) rotate(0 0 21.850000000000023)"><path d="M0.29 -0.54 C0.26 6.74, -0.41 36.09, -0.43 43.41 M-0.23 0.37 C-0.07 7.74, 0.57 36.72, 0.59 43.96" stroke="#1e1e1e" stroke-width="2" fill="none"/></g><g transform="translate(327.0470114440918 648.6350019073486) rotate(0 0 21.850000000000023)"><path d="M-7.17 23.53 C-6.24 27.93, -3.8 34.21, 0.59 43.96 M-7.17 23.53 C-4.94 28.37, -3.45 33.18, 0.59 43.96" stroke="#1e1e1e" stroke-width="2" fill="none"/></g><g transform="translate(327.0470114440918 648.6350019073486) rotate(0 0 21.850000000000023)"><path d="M7.78 23.32 C4.91 27.82, 3.54 34.15, 0.59 43.96 M7.78 23.32 C6.47 28.21, 4.42 33.08, 0.59 43.96" stroke="#1e1e1e" stroke-width="2" fill="none"/></g></g><mask/><g stroke-linecap="round"><g transform="translate(327.5470114440918 749.3440019073487) rotate(0 -0.3020000000000209 22.100499999999954)"><path d="M-0.54 -0.43 C-0.63 3.64, -0.72 17.3, -0.79 24.67 C-0.86 32.05, -0.99 40.49, -0.95 43.83 M0.18 0.55 C0.3 4.41, 0.29 16.51, 0.29 23.79 C0.29 31.08, 0.31 40.9, 0.18 44.23" stroke="#1e1e1e" stroke-width="2" fill="none"/></g><g transform="translate(327.5470114440918 749.3440019073487) rotate(0 -0.3020000000000209 22.100499999999954)"><path d="M-3.02 34.92 C-2.58 36.99, -1.25 39.26, 0.18 44.23 M-3.02 34.92 C-2.27 37.12, -1.54 38.99, 0.18 44.23" stroke="#1e1e1e" stroke-width="2" fill="none"/></g><g transform="translate(327.5470114440918 749.3440019073487) rotate(0 -0.3020000000000209 22.100499999999954)"><path d="M3.71 35.03 C2.48 37.05, 2.13 39.28, 0.18 44.23 M3.71 35.03 C2.9 37.24, 2.07 39.08, 0.18 44.23" stroke="#1e1e1e" stroke-width="2" fill="none"/></g></g><mask/><g stroke-linecap="round"><g transform="translate(327.5470114440918 1393.9380019073487) rotate(0 -0.25 21.59999999999991)"><path d="M-0.43 -0.29 C-0.53 3.74, -0.25 16.4, -0.33 23.65 C-0.4 30.91, -0.93 39.97, -0.88 43.23 M0.36 0.75 C0.17 4.89, -0.65 16.99, -0.67 24.17 C-0.69 31.36, 0.35 40.59, 0.25 43.85" stroke="#1e1e1e" stroke-width="2" fill="none"/></g><g transform="translate(327.5470114440918 1393.9380019073487) rotate(0 -0.25 21.59999999999991)"><path d="M-3.36 34.95 C-2.39 38.25, -1.16 40.91, 0.25 43.85 M-3.36 34.95 C-2.16 37.67, -1.33 40.22, 0.25 43.85" stroke="#1e1e1e" stroke-width="2" fill="none"/></g><g transform="translate(327.5470114440918 1393.9380019073487) rotate(0 -0.25 21.59999999999991)"><path d="M3.2 34.72 C1.86 38.08, 0.77 40.82, 0.25 43.85 M3.2 34.72 C2.4 37.51, 1.21 40.13, 0.25 43.85" stroke="#1e1e1e" stroke-width="2" fill="none"/></g></g><mask/><g stroke-linecap="round"><g transform="translate(327.0470114440918 1494.1460019073486) rotate(0 0 21.850000000000023)"><path d="M-0.29 0.17 C-0.26 7.46, -0.4 35.99, -0.35 43.32 M0.56 -0.22 C0.82 7.17, 0.85 36.56, 0.71 43.83" stroke="#1e1e1e" stroke-width="2" fill="none"/></g><g transform="translate(327.0470114440918 1494.1460019073486) rotate(0 0 21.850000000000023)"><path d="M-6.62 23.25 C-4.92 26.77, -4.44 31.61, 0.71 43.83 M-6.62 23.25 C-3.76 30.84, -1.26 38.99, 0.71 43.83" stroke="#1e1e1e" stroke-width="2" fill="none"/></g><g transform="translate(327.0470114440918 1494.1460019073486) rotate(0 0 21.850000000000023)"><path d="M8.32 23.35 C7.02 26.82, 4.5 31.63, 0.71 43.83 M8.32 23.35 C5.33 30.92, 1.97 39.03, 0.71 43.83" stroke="#1e1e1e" stroke-width="2" fill="none"/></g></g><mask/><g stroke-linecap="round"><g transform="translate(327.0470114440918 1594.8540019073487) rotate(0 0 21.850000000000023)"><path d="M0.17 -0.35 C0.18 6.99, -0.43 36.39, -0.38 43.73 M-0.4 0.66 C-0.19 8.12, 0.53 37.18, 0.67 44.45" stroke="#1e1e1e" stroke-width="2" fill="none"/></g><g transform="translate(327.0470114440918 1594.8540019073487) rotate(0 0 21.850000000000023)"><path d="M-7.26 24.09 C-6.19 27.93, -3.72 34.06, 0.67 44.45 M-7.26 24.09 C-5.32 29.84, -2.85 36.77, 0.67 44.45" stroke="#1e1e1e" stroke-width="2" fill="none"/></g><g transform="translate(327.0470114440918 1594.8540019073487) rotate(0 0 21.850000000000023)"><path d="M7.68 23.76 C5.43 27.69, 4.56 33.9, 0.67 44.45 M7.68 23.76 C5.12 29.61, 3.09 36.64, 0.67 44.45" stroke="#1e1e1e" stroke-width="2" fill="none"/></g></g><mask/><g transform="translate(221.7636833190918 42.85416603088379) rotate(0 105.283203125 12.5)"><text x="105.283203125" y="0" font-family="Virgil, Segoe UI Emoji" font-size="20px" fill="#1e1e1e" text-anchor="middle" style="white-space: pre;" direction="ltr" dominant-baseline="text-before-edge">Start - Transfert de cuve</text></g><g transform="translate(242.82910919189453 313.8880252838135) rotate(0 84.0380859375 25)"><text x="84.0380859375" y="0" font-family="Virgil, Segoe UI Emoji" font-size="20px" fill="#1e1e1e" text-anchor="middle" style="white-space: pre;" direction="ltr" dominant-baseline="text-before-edge">Cliquer droit sur la </text><text x="84.0380859375" y="25" font-family="Virgil, Segoe UI Emoji" font-size="20px" fill="#1e1e1e" text-anchor="middle" style="white-space: pre;" direction="ltr" dominant-baseline="text-before-edge">cuve source</text></g><g transform="translate(251.1923942565918 610.2812786102295) rotate(0 75.8544921875 12.5)"><text x="75.8544921875" y="0" font-family="Virgil, Segoe UI Emoji" font-size="20px" fill="#1e1e1e" text-anchor="middle" style="white-space: pre;" direction="ltr" dominant-baseline="text-before-edge">Insérer une tâche</text></g><g transform="translate(190.52343368530273 710.9896106719971) rotate(0 136.5234375 12.5)"><text x="136.5234375" y="0" font-family="Virgil, Segoe UI Emoji" font-size="20px" fill="#1e1e1e" text-anchor="middle" style="white-space: pre;" direction="ltr" dominant-baseline="text-before-edge">Sélectionner 'Transfert de cuve'</text></g><g transform="translate(193.80078125 1070.8672275543213) rotate(0 133.22265625 25)"><text x="133.22265625" y="0" font-family="Virgil, Segoe UI Emoji" font-size="20px" fill="#1e1e1e" text-anchor="middle" style="white-space: pre;" direction="ltr" dominant-baseline="text-before-edge">Cocher l'option 'Transférer les </text><text x="133.22265625" y="25" font-family="Virgil, Segoe UI Emoji" font-size="20px" fill="#1e1e1e" text-anchor="middle" style="white-space: pre;" direction="ltr" dominant-baseline="text-before-edge">tâches restantes'</text></g><g transform="translate(173.4677848815918 1455.7916927337646) rotate(0 153.5791015625 12.5)"><text x="153.5791015625" y="0" font-family="Virgil, Segoe UI Emoji" font-size="20px" fill="#1e1e1e" text-anchor="middle" style="white-space: pre;" direction="ltr" dominant-baseline="text-before-edge">Sélectionner la cuve de destination</text></g><g transform="translate(144.5322380065918 1556.5000247955322) rotate(0 182.5146484375 12.5)"><text x="182.5146484375" y="0" font-family="Virgil, Segoe UI Emoji" font-size="20px" fill="#1e1e1e" text-anchor="middle" style="white-space: pre;" direction="ltr" dominant-baseline="text-before-edge">Transférer les tâches vers la nouvelle cuve</text></g><g transform="translate(314.0830192565918 1657.2083568572998) rotate(0 12.9638671875 12.5)"><text x="12.9638671875" y="0" font-family="Virgil, Segoe UI Emoji" font-size="20px" fill="#1e1e1e" text-anchor="middle" style="white-space: pre;" direction="ltr" dominant-baseline="text-before-edge">Fin</text></g></svg>