<?xml version="1.0" encoding="UTF-8"?>
<svg data-bbox="7.953 15.45 518.088 548.75" viewBox="0 0 539.8 571.9" xmlns="http://www.w3.org/2000/svg" data-type="color">
    <g>
        <path d="M174.3 323.7c4.7-21.1 13.1-41.8 25.2-62.1-12-50.5-47.8-85.5-91.6-111.1-20.5 43.3-30.7 90.4-15.2 136.9 31.4 7.4 58.6 19.5 81.6 36.3zm43.8-89.4c10.1-13.1 21.8-26 35.1-38.8 7.7-7.4 19.8-7.4 27.5 0 13.3 12.8 25 25.7 35.1 38.8 5.3-19.6 7.5-39.8 5.2-60.2-4.6-41-26.6-76.7-54.1-106.7-27.5 30-49.5 65.8-54.1 106.7-2.2 20.4 0 40.5 5.3 60.2zm143.2-77.1c-8.5-47.5-35.4-92.9-80.6-136.2-7.7-7.4-19.8-7.4-27.5 0-41.8 40.1-67.9 81.9-78.3 125.5-18.8-16.4-41.3-31.2-67.6-44.3-9.5-4.8-21.1-1.2-26.2 8.1-33.8 60.9-45.2 117.6-34.1 170-5.8-.5-11.6-.9-17.6-1.1-10.7-.4-19.9 7.7-20.6 18.4-25.7 355.6 542 355.4 516.4-.2-.8-10.7-9.9-18.9-20.6-18.4-5.2.2-10.3.5-15.3.9 6.8-48.7-5.3-101.1-36.4-157-5.2-9.3-16.7-12.9-26.2-8.1-25.3 12.6-47.1 26.8-65.4 42.4zm-24.5 108.4c10.8 19 18.4 38.3 22.8 58 23.8-17.5 52.3-29.9 85.4-37.2 9.7-42.2-.9-84.9-19-123.2-40.6 23.7-75.3 56.3-89.2 102.4zM267 496.5c11.4-56.3 28.3-101.6 54.9-136.1-.1-3.9-.4-7.9-.8-11.9-4.6-41-26.6-76.7-54.1-106.7-27.5 30-49.5 65.8-54.1 106.7-.5 4-.7 8-.8 12 26.6 34.5 43.4 79.8 54.9 136zm-44.8 22.1c-.3-3.2-.6-6.5-.9-9.7-5.5-52.8-21.6-106.4-60.5-141.6-21.9-19.8-48.6-31.7-76.8-38.4-11.3-2.7-22.8-4.6-34.3-5.8-.8 40.8 6.4 82 30.1 115.8 31.9 45.5 87.6 68.2 142.4 79.7zm262.1-195.8c-10.7 1.1-21.4 2.8-31.8 5.2-29.2 6.6-56.8 18.7-79.4 39-39.2 35.5-55.2 89.6-60.6 142.8-.3 2.8-.5 5.7-.8 8.5 54.9-11.5 110.6-34.1 142.5-79.8 23.7-33.7 30.9-74.9 30.1-115.7z" fill-rule="evenodd" clip-rule="evenodd" fill="#dcb135" data-color="1"/>
    </g>
</svg>
